<mxfile host="app.diagrams.net" modified="2023-11-29T22:48:13.278Z" agent="Mozilla/5.0 (Windows NT 10.0; Win64; x64) AppleWebKit/537.36 (KHTML, like Gecko) Chrome/119.0.0.0 Safari/537.36" etag="LOXDs8gJmy2JDSNVcMtO" version="22.1.5" type="device">
  <diagram name="Page-1" id="ehi8T6ya39etycVimNvR">
    <mxGraphModel dx="1616" dy="1105" grid="0" gridSize="10" guides="1" tooltips="1" connect="1" arrows="1" fold="1" page="0" pageScale="1" pageWidth="850" pageHeight="1100" math="0" shadow="0">
      <root>
        <mxCell id="0" />
        <mxCell id="1" parent="0" />
        <mxCell id="wiD8zMbfk89ff6ZzkkVc-2" value="" style="rounded=0;whiteSpace=wrap;html=1;fontSize=16;" vertex="1" parent="1">
          <mxGeometry x="-49" y="84" width="412" height="280" as="geometry" />
        </mxCell>
        <mxCell id="wiD8zMbfk89ff6ZzkkVc-3" value="" style="rounded=0;whiteSpace=wrap;html=1;fontSize=16;rotation=-45;" vertex="1" parent="1">
          <mxGeometry x="297.69" y="3.35" width="254" height="35.73" as="geometry" />
        </mxCell>
        <mxCell id="wiD8zMbfk89ff6ZzkkVc-4" value="" style="rounded=0;whiteSpace=wrap;html=1;fontSize=16;rotation=-45;" vertex="1" parent="1">
          <mxGeometry x="-236.00000000000006" y="410" width="254" height="35.73" as="geometry" />
        </mxCell>
        <mxCell id="wiD8zMbfk89ff6ZzkkVc-5" value="" style="rounded=0;whiteSpace=wrap;html=1;fontSize=16;rotation=-45;direction=south;" vertex="1" parent="1">
          <mxGeometry x="412.99499999999995" y="300.865" width="35.73" height="254" as="geometry" />
        </mxCell>
        <mxCell id="wiD8zMbfk89ff6ZzkkVc-6" value="" style="rounded=0;whiteSpace=wrap;html=1;fontSize=16;rotation=-45;direction=south;" vertex="1" parent="1">
          <mxGeometry x="-137.00500000000005" y="-105.78499999999997" width="35.73" height="254" as="geometry" />
        </mxCell>
        <mxCell id="wiD8zMbfk89ff6ZzkkVc-7" value="" style="ellipse;whiteSpace=wrap;html=1;aspect=fixed;fontSize=16;" vertex="1" parent="1">
          <mxGeometry x="-209" y="-69" width="29" height="29" as="geometry" />
        </mxCell>
        <mxCell id="wiD8zMbfk89ff6ZzkkVc-8" value="" style="ellipse;whiteSpace=wrap;html=1;aspect=fixed;fontSize=16;" vertex="1" parent="1">
          <mxGeometry x="494" y="489" width="29" height="29" as="geometry" />
        </mxCell>
        <mxCell id="wiD8zMbfk89ff6ZzkkVc-9" value="" style="ellipse;whiteSpace=wrap;html=1;aspect=fixed;fontSize=16;" vertex="1" parent="1">
          <mxGeometry x="486" y="-69" width="29" height="29" as="geometry" />
        </mxCell>
        <mxCell id="wiD8zMbfk89ff6ZzkkVc-10" value="" style="ellipse;whiteSpace=wrap;html=1;aspect=fixed;fontSize=16;" vertex="1" parent="1">
          <mxGeometry x="-198" y="489" width="29" height="29" as="geometry" />
        </mxCell>
        <mxCell id="wiD8zMbfk89ff6ZzkkVc-11" value="" style="rounded=0;whiteSpace=wrap;html=1;fontSize=16;" vertex="1" parent="1">
          <mxGeometry x="873" y="-22" width="254" height="136.08" as="geometry" />
        </mxCell>
        <mxCell id="wiD8zMbfk89ff6ZzkkVc-12" value="" style="rounded=0;whiteSpace=wrap;html=1;fontSize=16;" vertex="1" parent="1">
          <mxGeometry x="873" y="233" width="256" height="136" as="geometry" />
        </mxCell>
      </root>
    </mxGraphModel>
  </diagram>
</mxfile>
